<svg xmlns="http://www.w3.org/2000/svg" viewBox="0 0 29.73 25"><defs><style>.cls-1{fill:#fff;}</style></defs><g id="레이어_2" data-name="레이어 2"><g id="레이어_1-2" data-name="레이어 1"><path class="cls-1" d="M7.67,6.66H1.11A1.11,1.11,0,0,0,0,7.77v9.46a1.11,1.11,0,0,0,1.11,1.11H7.67l8.65,6.44a1.1,1.1,0,0,0,1.76-.89V1.11A1.1,1.1,0,0,0,16.32.22Z"/><path class="cls-1" d="M24,8.26a1,1,0,0,0-1.42,0,1,1,0,0,0,0,1.41,4,4,0,0,1,0,5.66A1,1,0,1,0,24,16.74,6,6,0,0,0,24,8.26Z"/><path class="cls-1" d="M26.81,5.43a1,1,0,0,0-1.42,0,1,1,0,0,0,0,1.41,8,8,0,0,1,0,11.32,1,1,0,0,0,0,1.41,1,1,0,0,0,.71.29,1,1,0,0,0,.71-.29A10,10,0,0,0,26.81,5.43Z"/></g></g></svg>