<svg xmlns="http://www.w3.org/2000/svg" viewBox="0 0 30 25"><defs><style>.cls-1{fill:#fff;}</style></defs><g id="레이어_2" data-name="레이어 2"><g id="레이어_1-2" data-name="레이어 1"><path class="cls-1" d="M7.67,6.66H1.11A1.11,1.11,0,0,0,0,7.77v9.46a1.11,1.11,0,0,0,1.11,1.11H7.67l8.65,6.44a1.1,1.1,0,0,0,1.76-.89V1.11A1.1,1.1,0,0,0,16.32.22Z"/><path class="cls-1" d="M27.41,12.5l2.3-2.29a1,1,0,0,0-1.42-1.42L26,11.09l-2.29-2.3a1,1,0,0,0-1.42,1.42l2.3,2.29-2.3,2.29a1,1,0,0,0,0,1.42,1,1,0,0,0,1.42,0L26,13.91l2.29,2.3a1,1,0,0,0,1.42,0,1,1,0,0,0,0-1.42Z"/></g></g></svg>